<svg width="28" height="28" viewBox="0 0 28 28" fill="none" xmlns="http://www.w3.org/2000/svg">
<path d="M28 16.6513C28.0044 14.7184 26.4598 13.1535 24.5651 13.1535C24.0925 13.1535 23.6418 13.251 23.2261 13.4239C22.9461 10.2852 20.3469 7.82031 17.1746 7.82031C16.3957 7.82031 15.6431 7.96661 14.9736 8.23704C14.7067 8.33457 14.6323 8.4321 14.6323 8.6449V19.7147C14.6323 19.9364 14.8029 20.096 15.0086 20.1226H24.5607C26.4554 20.1226 28 18.5709 28 16.6513Z" fill="white"/>
<path d="M14.3216 9.01286C14.3041 8.87986 14.2341 8.75573 14.1247 8.69366C14.0766 8.6582 14.0022 8.6316 13.9409 8.6316C13.8447 8.6316 13.7571 8.66706 13.6959 8.71583C13.6127 8.79119 13.5602 8.90203 13.5515 9.01286V9.04832L13.4071 16.8819L13.4815 18.3227L13.5559 19.728C13.569 19.9364 13.7396 20.1093 13.9453 20.1093C14.151 20.1093 14.3216 19.9364 14.3216 19.728L14.4923 16.8819L14.3216 9.01286Z" fill="white"/>
<path d="M6.9267 10.9014C7.04922 10.9014 7.15861 10.999 7.15861 11.1364L7.39052 16.8996L7.15861 19.9053C7.15861 20.0428 7.04922 20.1403 6.9267 20.1403C6.79106 20.1403 6.69479 20.0428 6.68166 19.9053L6.48913 16.8996L6.68166 11.1364C6.69479 10.999 6.79106 10.9014 6.9267 10.9014Z" fill="white"/>
<path d="M6.01657 12.1915C6.01657 12.0674 5.9203 11.9698 5.81091 11.9698C5.68839 11.9698 5.60525 12.0674 5.59212 12.1915L5.37334 16.873L5.59212 19.9009C5.60525 20.025 5.68839 20.1226 5.81091 20.1226C5.9203 20.1226 6.01657 20.025 6.01657 19.9009L6.27035 16.873L6.01657 12.1915Z" fill="white"/>
<path d="M5.1283 16.873L4.87451 13.9914C4.86139 13.8939 4.77825 13.8052 4.68198 13.8052C4.58134 13.8052 4.49821 13.8939 4.49821 13.9914L4.25317 16.873L4.49821 19.9009C4.49821 20.0117 4.58572 20.096 4.68198 20.096C4.77825 20.096 4.86139 20.0117 4.87451 19.9009L5.1283 16.873Z" fill="white"/>
<path d="M0.424441 15.2948C0.411314 15.2327 0.376309 15.1839 0.315049 15.1839C0.25379 15.1839 0.218784 15.2327 0.205657 15.2948L0 16.873L0.205657 18.4246C0.218784 18.4867 0.25379 18.5355 0.315049 18.5355C0.376309 18.5355 0.411314 18.4867 0.424441 18.4246L0.669479 16.873L0.424441 15.2948Z" fill="white"/>
<path d="M1.34771 14.2131C1.40897 14.2131 1.4571 14.2618 1.47023 14.3239L1.78528 16.873L1.47023 19.3734C1.4571 19.4354 1.40897 19.4842 1.34771 19.4842C1.28645 19.4842 1.23832 19.4354 1.23832 19.3601L0.958273 16.873L1.23832 14.3239C1.23832 14.2618 1.28645 14.2131 1.34771 14.2131Z" fill="white"/>
<path d="M2.59041 13.854C2.59041 13.7697 2.52915 13.7077 2.45476 13.7077C2.38038 13.7077 2.31912 13.7697 2.31036 13.854L2.05658 16.873L2.31036 19.7901C2.32349 19.8654 2.38475 19.9275 2.45476 19.9275C2.52915 19.9275 2.59041 19.8654 2.59041 19.7901L2.89233 16.873L2.59041 13.854Z" fill="white"/>
<path d="M3.5618 13.6101C3.64494 13.6101 3.71932 13.6722 3.73245 13.7697L4.0125 16.873L3.73245 19.8788C3.71932 19.9763 3.64494 20.0383 3.5618 20.0383C3.47866 20.0383 3.40428 19.9763 3.40428 19.8788L3.15049 16.873L3.40428 13.7697C3.40428 13.6722 3.47866 13.6101 3.5618 13.6101Z" fill="white"/>
<path d="M12.9564 9.37195C13.0527 9.43402 13.1139 9.54485 13.127 9.66898L13.2714 16.8863L13.1358 19.4842L13.1227 19.7812C13.1227 19.8832 13.0877 19.9674 13.0133 20.0295C12.952 20.0915 12.8645 20.1403 12.7682 20.1403C12.6588 20.1403 12.5626 20.0871 12.4882 20.0029C12.4401 19.9408 12.4138 19.8699 12.4138 19.7945V19.7812C12.2782 16.8863 12.2782 16.873 12.2782 16.873L12.4007 9.74434L12.4138 9.66898C12.4138 9.54485 12.4751 9.43402 12.5713 9.37195C12.6282 9.33648 12.6938 9.30988 12.7639 9.30988C12.8339 9.30988 12.8951 9.33648 12.9564 9.37195Z" fill="white"/>
<path d="M8.3488 10.6399C8.34005 10.4936 8.23066 10.3694 8.08189 10.3694C7.94624 10.3694 7.8281 10.4936 7.8281 10.6399L7.63557 16.873L7.8281 19.8521C7.84123 19.9984 7.95062 20.1093 8.08189 20.1093C8.22628 20.1093 8.33568 19.9984 8.3488 19.8521L8.56759 16.873L8.3488 10.6399Z" fill="white"/>
<path d="M11.5824 10.4803C11.7662 10.4803 11.8975 10.6266 11.9106 10.8261L12.0813 16.8863L11.9106 19.7945C11.9106 19.9807 11.7662 20.127 11.5824 20.127C11.3987 20.127 11.2543 19.9807 11.2411 19.7945L11.0967 16.8863L11.2411 10.8261C11.2543 10.6266 11.3987 10.4803 11.5824 10.4803Z" fill="white"/>
<path d="M9.53023 10.4315C9.51711 10.2719 9.39459 10.1345 9.23706 10.1345C9.09267 10.1345 8.95702 10.2719 8.95702 10.4315L8.78637 16.873L8.95702 19.8389C8.97015 19.9984 9.09267 20.1226 9.23706 20.1226C9.39459 20.1226 9.51711 19.9984 9.53023 19.8389L9.72276 16.873L9.53023 10.4315Z" fill="white"/>
<path d="M10.4054 10.2852C10.576 10.2852 10.7073 10.4182 10.7073 10.5911L10.8911 16.873L10.7073 19.8167C10.7073 19.9851 10.5717 20.1226 10.4054 20.1226C10.2391 20.1226 10.1166 19.9896 10.1035 19.8167L9.9328 16.873L10.1035 10.5911C10.1035 10.4226 10.2347 10.2852 10.4054 10.2852Z" fill="white"/>
</svg>
