<svg width="28" height="28" viewBox="0 0 28 28" fill="none" xmlns="http://www.w3.org/2000/svg">
<path fill-rule="evenodd" clip-rule="evenodd" d="M7.83784 14C7.83784 10.5967 10.5967 7.83784 14 7.83784C17.4033 7.83784 20.1622 10.5967 20.1622 14C20.1622 17.4033 17.4033 20.1622 14 20.1622C10.5967 20.1622 7.83784 17.4033 7.83784 14ZM14 18C11.7908 18 10 16.2092 10 14C10 11.7909 11.7908 10 14 10C16.2091 10 18 11.7909 18 14C18 16.2092 16.2091 18 14 18Z" fill="white"/>
<path d="M20.4056 9.03436C21.2009 9.03436 21.8456 8.38968 21.8456 7.59438C21.8456 6.79909 21.2009 6.15436 20.4056 6.15436C19.6104 6.15436 18.9656 6.79909 18.9656 7.59438C18.9656 8.38968 19.6104 9.03436 20.4056 9.03436Z" fill="white"/>
<path fill-rule="evenodd" clip-rule="evenodd" d="M14 2C10.741 2 10.3323 2.01381 9.05242 2.07221C7.77516 2.13047 6.90283 2.33334 6.13954 2.63001C5.35044 2.93663 4.68123 3.34695 4.01406 4.01406C3.34695 4.68123 2.93663 5.35044 2.63001 6.13954C2.33334 6.90283 2.13047 7.77516 2.07221 9.05242C2.01381 10.3323 2 10.741 2 14C2 17.259 2.01381 17.6677 2.07221 18.9476C2.13047 20.2248 2.33334 21.0972 2.63001 21.8605C2.93663 22.6496 3.34695 23.3188 4.01406 23.9859C4.68123 24.6531 5.35044 25.0634 6.13954 25.37C6.90283 25.6667 7.77516 25.8695 9.05242 25.9278C10.3323 25.9862 10.741 26 14 26C17.259 26 17.6677 25.9862 18.9476 25.9278C20.2248 25.8695 21.0972 25.6667 21.8605 25.37C22.6496 25.0634 23.3188 24.6531 23.9859 23.9859C24.6531 23.3188 25.0634 22.6496 25.37 21.8605C25.6667 21.0972 25.8695 20.2248 25.9278 18.9476C25.9862 17.6677 26 17.259 26 14C26 10.741 25.9862 10.3323 25.9278 9.05242C25.8695 7.77516 25.6667 6.90283 25.37 6.13954C25.0634 5.35044 24.6531 4.68123 23.9859 4.01406C23.3188 3.34695 22.6496 2.93663 21.8605 2.63001C21.0972 2.33334 20.2248 2.13047 18.9476 2.07221C17.6677 2.01381 17.259 2 14 2ZM14 4.16216C17.2041 4.16216 17.5837 4.1744 18.849 4.23213C20.019 4.28548 20.6544 4.48097 21.0773 4.64531C21.6374 4.863 22.0371 5.12303 22.457 5.54297C22.877 5.96287 23.137 6.36261 23.3547 6.92274C23.519 7.34559 23.7145 7.98098 23.7679 9.15097C23.8256 10.4163 23.8378 10.7959 23.8378 14C23.8378 17.2041 23.8256 17.5837 23.7679 18.849C23.7145 20.019 23.519 20.6544 23.3547 21.0773C23.137 21.6374 22.877 22.0371 22.457 22.457C22.0371 22.877 21.6374 23.137 21.0773 23.3547C20.6544 23.519 20.019 23.7145 18.849 23.7679C17.5839 23.8256 17.2044 23.8378 14 23.8378C10.7956 23.8378 10.4162 23.8256 9.15097 23.7679C7.98098 23.7145 7.34559 23.519 6.92275 23.3547C6.36262 23.137 5.96287 22.877 5.54298 22.457C5.12308 22.0371 4.863 21.6374 4.64531 21.0773C4.48098 20.6544 4.28549 20.019 4.23214 18.849C4.1744 17.5837 4.16216 17.2041 4.16216 14C4.16216 10.7959 4.1744 10.4163 4.23214 9.15097C4.28549 7.98098 4.48098 7.34559 4.64531 6.92274C4.863 6.36261 5.12304 5.96287 5.54298 5.54297C5.96287 5.12303 6.36262 4.863 6.92275 4.64531C7.34559 4.48097 7.98098 4.28548 9.15097 4.23213C10.4163 4.1744 10.7959 4.16216 14 4.16216Z" fill="white"/>
</svg>
