<svg width="41" height="47" viewBox="0 0 41 47" fill="none" xmlns="http://www.w3.org/2000/svg">
<path fill-rule="evenodd" clip-rule="evenodd" d="M17.9199 0.180885C16.8818 0.437979 16.5211 0.742938 16.1658 1.66422C15.8714 2.4275 15.8508 2.1203 16.5195 6.91976C17.1897 11.729 17.1869 11.7127 17.7818 14.54C18.4787 17.8533 18.8419 18.1687 21.3577 17.6439C23.4219 17.2133 24.1767 16.4615 23.9723 15.0397C23.9251 14.7118 23.7712 13.4352 23.6301 12.2025C23.489 10.9699 23.3018 9.61556 23.2142 9.1931C23.1266 8.77048 23.055 8.10501 23.055 7.71425C23.055 7.32349 22.8731 6.31064 22.6509 5.46348C22.4286 4.61632 22.2467 3.79525 22.2467 3.63885C22.2467 3.48261 22.1389 3.00412 22.0073 2.57589C21.8756 2.14751 21.6932 1.49949 21.6021 1.13578C21.3549 0.149029 19.7392 -0.26991 17.9199 0.180885ZM3.89809 0.917429C0.915339 2.4712 -0.287493 4.1223 0.724917 5.2733C0.979352 5.56257 1.31461 6.0513 1.47012 6.35947C1.62563 6.66763 2.15681 7.44755 2.65081 8.09269C3.37984 9.04519 3.7956 9.87346 4.86152 12.4983C7.22305 18.3137 8.09677 19.3984 9.54207 18.3087C9.8172 18.1014 10.3332 17.7846 10.6888 17.6048C13.3796 16.2446 13.6219 15.2423 11.9757 12.2826C11.0779 10.6683 7.2958 3.10993 6.75476 1.84847C6.44633 1.12938 6.05094 0.800088 5.17544 0.533229C4.95107 0.464713 4.51527 0.595822 3.89809 0.917429ZM31.6411 1.61731C31.4038 1.86736 31.2339 2.32104 31.1454 2.94184C30.9865 4.05554 30.3061 6.29335 29.0843 9.72122C28.1956 12.2147 27.2787 15.284 27.1384 16.2355C27.0272 16.99 27.6039 17.4979 28.7269 17.6345C29.2082 17.6931 30.3058 17.8571 31.1664 17.9991C33.3697 18.3628 33.2934 18.433 34.4564 14.9721C35.8243 10.9018 36.5171 8.90063 37.2706 6.8434C38.0589 4.69044 38.0466 4.57998 36.903 3.54472C34.4152 1.29266 32.585 0.622235 31.6411 1.61731ZM11.1738 19.3206C10.5514 19.4839 9.82577 19.7005 9.56147 19.8017C8.67078 20.143 5.4142 20.208 4.32808 19.906C3.21916 19.5979 2.37002 19.7999 1.52314 20.5733C0.897234 21.1448 0.871209 21.455 1.14634 25.0739C1.46818 29.3057 1.45913 30.0675 1.07068 31.4125C0.89287 32.0282 0.747224 32.9285 0.747224 33.4131C0.747063 33.8977 0.637949 34.9063 0.504912 35.6547C0.217661 37.2698 0.200203 38.5967 0.437504 40.7579C0.600285 42.239 0.588808 42.4053 0.275855 43.1058C-0.73914 45.3782 1.1979 47.559 3.62038 46.871C3.91005 46.7887 4.85522 46.6398 5.72069 46.5399C6.58616 46.4402 7.70477 46.2555 8.20653 46.1293C8.70845 46.0032 9.69047 45.8999 10.3888 45.8997C11.0873 45.8996 12.6771 45.7893 13.9218 45.6547C15.1665 45.52 17.0214 45.3423 18.0439 45.2597C20.2313 45.083 22.6547 44.8394 24.3482 44.6256C29.1694 44.0175 33.8822 44.042 36.568 44.6894C37.4655 44.9056 38.3384 45.0542 38.5078 45.0195C38.6772 44.9847 39.1666 44.9112 39.5952 44.8563C40.9777 44.6791 41.3427 43.8308 40.6773 42.3414C40.1903 41.2508 39.7716 39.1036 39.1399 34.4541C39.0083 33.4856 38.8184 32.1889 38.7178 31.5726C38.6171 30.9563 38.4749 28.7952 38.4015 26.7701C38.1763 20.5606 38.1546 20.491 36.2751 19.9237C34.5398 19.3997 24.1073 19.2739 22.3578 19.7556C21.1128 20.0985 18.3659 19.9594 15.6191 19.4144C13.2251 18.9395 12.671 18.9278 11.1738 19.3206ZM23.5828 30.4634C25.5725 30.5458 25.9933 30.6063 26.1118 30.8273C26.234 31.0552 26.3689 33.4108 26.3083 34.258C26.2758 34.7106 25.5639 34.8801 22.9742 35.0517C16.4275 35.4858 15.563 35.2308 15.403 32.8187C15.2198 30.0568 15.0365 30.1096 23.5828 30.4634Z" fill="white"/>
</svg>
