<svg width="1512" height="160" viewBox="0 0 1512 160" fill="none" xmlns="http://www.w3.org/2000/svg">
<path d="M60.8866 66.7488C72.3314 65.1489 90.1854 60.1207 90.1854 35.208C90.1854 -1.58965 46.9239 0.0102392 46.9239 0.0102392H0V160H55.8508C55.8508 160 109.642 160 111.015 110.86C112.159 71.7771 76.6805 66.0632 60.8866 66.7488ZM37.9969 61.0349C23.8053 61.0349 14.4205 51.6641 14.4205 37.4936C14.4205 22.6374 23.8053 13.2665 37.9969 13.2665H47.1528C47.1528 13.2665 76.4516 11.6666 75.9938 34.5223C75.536 62.4062 51.9596 61.0349 51.9596 61.0349H37.9969ZM50.5862 146.744C28.841 146.744 14.4205 132.345 14.4205 110.632C14.4205 88.2332 28.841 73.6055 50.5862 73.6055H50.8151C50.8151 73.6055 95.6789 72.0056 95.6789 110.175C95.45 149.486 52.1885 146.744 52.1885 146.744H50.5862Z" fill="white"/>
<path d="M152.928 145.601C143.543 145.601 137.363 139.43 137.363 130.059V0.0102392H122.943V160H200.997V145.601H152.928Z" fill="white"/>
<path d="M257.863 145.601C240.238 145.601 228.564 133.945 228.564 116.346C228.564 98.2897 240.238 86.6333 257.863 86.6333H300.209V72.2342H257.176C240.009 72.2342 228.564 60.8063 228.564 43.6646C228.564 25.8372 240.009 14.4093 257.176 14.4093H310.738V0.0102392H214.144V160H310.738V145.601H257.863Z" fill="white"/>
<path d="M344.504 139.658C349.998 118.403 368.309 104.232 390.284 104.232C412.944 104.232 431.256 118.403 436.75 139.658L442.014 160H457.808L416.378 0.0102392H365.105L323.675 160H339.468L344.504 139.658ZM373.574 27.4371C375.634 19.6661 382.501 14.4093 390.512 14.4093C398.982 14.4093 405.849 19.6661 407.909 27.4371L420.498 76.8053C422.558 84.8048 418.438 90.0616 410.198 90.0616H371.056C362.816 90.0616 358.696 84.8048 360.756 76.8053L373.574 27.4371Z" fill="white"/>
<path d="M481.597 106.975C481.597 97.604 488.006 91.433 497.391 91.433H519.365C528.75 91.433 534.93 97.604 534.93 106.975V160H549.351V77.0339H507.692C498.307 77.0339 495.789 72.2342 501.511 64.6918L549.122 0.467361H530.123L490.753 55.0924C488.235 58.2922 486.175 60.1207 484.802 60.1207C482.742 60.1207 481.597 57.378 481.597 52.1212V0.0102392H467.406V158.857H481.597V106.975Z" fill="white"/>
<path d="M700.895 111.089C700.895 116.346 699.979 119.088 698.377 119.088C697.004 119.088 695.172 117.031 693.112 112.917L633.828 0.0102392H619.408V160H633.828V48.9214C633.828 43.6646 634.744 40.9219 636.117 40.9219C637.49 40.9219 639.322 42.9789 641.611 47.0929L700.895 160H715.086V0.0102392H700.895V111.089Z" fill="white"/>
<path d="M744.403 139.658C749.897 118.403 768.208 104.232 790.182 104.232C812.843 104.232 831.155 118.403 836.649 139.658L841.913 160H857.707L816.277 0.0102392H765.004L723.573 160H739.367L744.403 139.658ZM773.473 27.4371C775.533 19.6661 782.4 14.4093 790.411 14.4093C798.881 14.4093 805.747 19.6661 807.808 27.4371L820.397 76.8053C822.457 84.8048 818.337 90.0616 810.096 90.0616H770.955C762.715 90.0616 758.595 84.8048 760.655 76.8053L773.473 27.4371Z" fill="white"/>
<path d="M877.925 94.8613C877.925 90.9758 880.443 88.4617 884.334 88.4617L885.937 88.6903C889.828 88.6903 893.719 90.7473 895.779 93.9471L937.438 160H953.69L912.26 93.9471C910.2 90.7473 911.344 88.6903 915.235 88.2332C953.69 84.3477 953.69 45.0359 953.69 45.0359C953.69 0.0102386 910.429 0.0102392 910.429 0.0102392H863.505V160H877.925V94.8613ZM909.055 75.8911C890.286 75.8911 877.925 63.549 877.925 44.8074C877.925 25.6086 890.286 13.2665 908.826 13.2665H910.429C910.429 13.2665 939.498 13.2665 939.498 45.0359C939.498 45.0359 939.498 75.8911 910.429 75.8911H909.055Z" fill="white"/>
<path d="M980.973 94.8613C980.973 90.9758 983.491 88.4617 987.383 88.4617L988.985 88.6903C992.876 88.6903 996.767 90.7473 998.827 93.9471L1040.49 160H1056.74L1015.31 93.9471C1013.25 90.7473 1014.39 88.6903 1018.28 88.2332C1056.74 84.3477 1056.74 45.0359 1056.74 45.0359C1056.74 0.0102386 1013.48 0.0102392 1013.48 0.0102392H966.553V160H980.973V94.8613ZM1012.1 75.8911C993.334 75.8911 980.973 63.549 980.973 44.8074C980.973 25.6086 993.334 13.2665 1011.87 13.2665H1013.48C1013.48 13.2665 1042.55 13.2665 1042.55 45.0359C1042.55 45.0359 1042.55 75.8911 1013.48 75.8911H1012.1Z" fill="white"/>
<path d="M1080.37 139.658C1085.87 118.403 1104.18 104.232 1126.15 104.232C1148.81 104.232 1167.12 118.403 1172.62 139.658L1177.88 160H1193.68L1152.25 0.0102392H1100.97L1059.54 160H1075.34L1080.37 139.658ZM1109.44 27.4371C1111.5 19.6661 1118.37 14.4093 1126.38 14.4093C1134.85 14.4093 1141.72 19.6661 1143.78 27.4371L1156.37 76.8053C1158.43 84.8048 1154.31 90.0616 1146.07 90.0616H1106.92C1098.68 90.0616 1094.56 84.8048 1096.62 76.8053L1109.44 27.4371Z" fill="white"/>
<path d="M1191.46 14.4093C1203.59 14.4093 1211.6 22.4088 1211.6 34.5223V160H1226.02V34.7509C1226.02 22.4088 1234.26 14.4093 1246.39 14.4093H1267.68V0.0102392H1171.08V14.4093H1191.46Z" fill="white"/>
<path d="M1279.27 160H1293.69V0.0102392H1279.27V160Z" fill="white"/>
<path d="M1390.55 0.0102392L1355.99 160H1371.32L1406.34 0.0102392H1390.55ZM1306.55 0.0102392L1340.19 160H1355.99L1320.97 0.0102392H1306.55Z" fill="white"/>
<path d="M1459.12 145.601C1441.5 145.601 1429.83 133.945 1429.83 116.346C1429.83 98.2897 1441.5 86.6333 1459.12 86.6333H1501.47V72.2342H1458.44C1441.27 72.2342 1429.83 60.8063 1429.83 43.6646C1429.83 25.8372 1441.27 14.4093 1458.44 14.4093H1512V0.0102392H1415.41V160H1512V145.601H1459.12Z" fill="white"/>
</svg>
