<svg width="85" height="22" viewBox="0 0 85 22" fill="none" xmlns="http://www.w3.org/2000/svg">
<path d="M8.82 9.76C10.32 9.55 12.66 8.89 12.66 5.62C12.66 0.789999 6.99 0.999999 6.99 0.999999H0.84V22H8.16C8.16 22 15.21 22 15.39 15.55C15.54 10.42 10.89 9.67 8.82 9.76ZM5.82 9.01C3.96 9.01 2.73 7.78 2.73 5.92C2.73 3.97 3.96 2.74 5.82 2.74H7.02C7.02 2.74 10.86 2.53 10.8 5.53C10.74 9.19 7.65 9.01 7.65 9.01H5.82ZM7.47 20.26C4.62 20.26 2.73 18.37 2.73 15.52C2.73 12.58 4.62 10.66 7.47 10.66H7.5C7.5 10.66 13.38 10.45 13.38 15.46C13.35 20.62 7.68 20.26 7.68 20.26H7.47ZM23.8833 20.11C22.6533 20.11 21.8433 19.3 21.8433 18.07V0.999999H19.9533V22H30.1833V20.11H23.8833ZM40.6364 20.11C38.3264 20.11 36.7964 18.58 36.7964 16.27C36.7964 13.9 38.3264 12.37 40.6364 12.37H46.1864V10.48H40.5464C38.2964 10.48 36.7964 8.98 36.7964 6.73C36.7964 4.39 38.2964 2.89 40.5464 2.89H47.5664V0.999999H34.9064V22H47.5664V20.11H40.6364ZM54.9919 19.33C55.7119 16.54 58.1119 14.68 60.9919 14.68C63.9619 14.68 66.3619 16.54 67.0819 19.33L67.7719 22H69.8419L64.4119 0.999999H57.6919L52.2619 22H54.3319L54.9919 19.33ZM58.8019 4.6C59.0719 3.58 59.9719 2.89 61.0219 2.89C62.1319 2.89 63.0319 3.58 63.3019 4.6L64.9519 11.08C65.2219 12.13 64.6819 12.82 63.6019 12.82H58.4719C57.3919 12.82 56.8519 12.13 57.1219 11.08L58.8019 4.6ZM75.9598 15.04C75.9598 13.81 76.7998 13 78.0298 13H80.9098C82.1398 13 82.9498 13.81 82.9498 15.04V22H84.8398V11.11H79.3798C78.1498 11.11 77.8198 10.48 78.5698 9.49L84.8098 1.06H82.3198L77.1598 8.23C76.8298 8.65 76.5598 8.89 76.3798 8.89C76.1098 8.89 75.9598 8.53 75.9598 7.84V0.999999H74.0998V21.85H75.9598V15.04Z" fill="white"/>
</svg>
