<svg width="144" height="21" viewBox="0 0 144 21" fill="none" xmlns="http://www.w3.org/2000/svg">
<path d="M8.43948 9.34226C9.86796 9.14227 12.0964 8.51374 12.0964 5.39966C12.0964 0.799951 6.69673 0.999937 6.69673 0.999937H0.839966V20.9987H7.81095C7.81095 20.9987 14.5248 20.9987 14.6962 14.8562C14.8391 9.97079 10.4108 9.25655 8.43948 9.34226ZM5.58252 8.62802C3.8112 8.62802 2.63985 7.45667 2.63985 5.68535C2.63985 3.82833 3.8112 2.65697 5.58252 2.65697H6.7253C6.7253 2.65697 10.3822 2.45699 10.3251 5.31395C10.2679 8.79944 7.32526 8.62802 7.32526 8.62802H5.58252ZM7.15385 19.3416C4.43974 19.3416 2.63985 17.5417 2.63985 14.8276C2.63985 12.0278 4.43974 10.1993 7.15385 10.1993H7.18242C7.18242 10.1993 12.7821 9.99936 12.7821 14.7705C12.7535 19.6845 7.35383 19.3416 7.35383 19.3416H7.15385Z" fill="white"/>
<path d="M22.7845 19.1988C21.6132 19.1988 20.8418 18.4274 20.8418 17.256V0.999937H19.0419V20.9987H28.7842V19.1988H22.7845Z" fill="white"/>
<path d="M38.7389 19.1988C36.539 19.1988 35.082 17.7417 35.082 15.5419C35.082 13.2849 36.539 11.8278 38.7389 11.8278H44.0243V10.0279H38.6532C36.5104 10.0279 35.082 8.59945 35.082 6.45673C35.082 4.2283 36.5104 2.79982 38.6532 2.79982H45.3385V0.999937H33.2821V20.9987H45.3385V19.1988H38.7389Z" fill="white"/>
<path d="M52.4099 18.456C53.0955 15.799 55.3811 14.0277 58.1238 14.0277C60.9522 14.0277 63.2378 15.799 63.9234 18.456L64.5805 20.9987H66.5518L61.3807 0.999937H54.9811L49.81 20.9987H51.7813L52.4099 18.456ZM56.0382 4.42829C56.2953 3.45692 57.1524 2.79982 58.1524 2.79982C59.2094 2.79982 60.0665 3.45692 60.3237 4.42829L61.895 10.5993C62.1521 11.5993 61.6379 12.2564 60.6093 12.2564H55.7239C54.6954 12.2564 54.1812 11.5993 54.4383 10.5993L56.0382 4.42829Z" fill="white"/>
<path d="M72.378 14.3705C72.378 13.1992 73.178 12.4278 74.3493 12.4278H77.092C78.2634 12.4278 79.0347 13.1992 79.0347 14.3705V20.9987H80.8346V10.6279H75.635C74.4636 10.6279 74.1493 10.0279 74.8636 9.08513L80.8061 1.05708H78.4348L73.5208 7.88521C73.2065 8.28519 72.9494 8.51374 72.778 8.51374C72.5209 8.51374 72.378 8.17091 72.378 7.51381V0.999937H70.6067V20.8558H72.378V14.3705Z" fill="white"/>
<path d="M88.693 19.2559C88.693 18.3131 87.9217 17.5703 87.0074 17.5703C86.0646 17.5703 85.2933 18.3131 85.2933 19.2559C85.2933 20.1987 86.0646 20.9701 87.0074 20.9701C87.9217 20.9701 88.693 20.1987 88.693 19.2559Z" fill="white"/>
<path d="M108.371 0.999937V19.1988H102.629V0.999937H100.715V19.1988H94.9721V0.999937H93.1722V20.9987H110.143V0.999937H108.371Z" fill="white"/>
<path d="M117.181 2.79982C118.695 2.79982 119.695 3.79976 119.695 5.31395V20.9987H121.495V5.34252C121.495 3.79976 122.524 2.79982 124.038 2.79982H126.695V0.999937H114.638V2.79982H117.181Z" fill="white"/>
<path d="M132.966 14.7991C132.966 13.0277 134.166 11.8278 135.966 11.8278H141.909V10.0279H135.966C134.166 10.0279 132.966 8.82801 132.966 7.02812V5.79963C132.966 3.99975 134.166 2.79982 135.966 2.79982H143.223V0.999937H131.166V20.9987H132.966V14.7991Z" fill="white"/>
</svg>
